<svg width="104" height="24" viewBox="0 0 104 24" fill="none" xmlns="http://www.w3.org/2000/svg">
<path d="M22 12C22 6.48 17.52 2 12 2C6.48 2 2 6.48 2 12C2 16.84 5.44 20.87 10 21.8V15H8V12H10V9.5C10 7.57 11.57 6 13.5 6H16V9H14C13.45 9 13 9.45 13 10V12H16V15H13V21.95C18.05 21.45 22 17.19 22 12Z" fill="#1E1E1E"/>
<path d="M55 12C55 12.5933 54.8241 13.1734 54.4944 13.6667C54.1648 14.1601 53.6962 14.5446 53.1481 14.7716C52.5999 14.9987 51.9967 15.0581 51.4147 14.9424C50.8328 14.8266 50.2982 14.5409 49.8787 14.1213C49.4591 13.7018 49.1734 13.1672 49.0576 12.5853C48.9419 12.0033 49.0013 11.4001 49.2284 10.8519C49.4554 10.3038 49.8399 9.83524 50.3333 9.50559C50.8266 9.17595 51.4067 9 52 9C52.7949 9.00247 53.5565 9.31934 54.1186 9.88141C54.6807 10.4435 54.9975 11.2051 55 12ZM61.375 7.875V16.125C61.375 17.5174 60.8219 18.8527 59.8373 19.8373C58.8527 20.8219 57.5174 21.375 56.125 21.375H47.875C46.4826 21.375 45.1473 20.8219 44.1627 19.8373C43.1781 18.8527 42.625 17.5174 42.625 16.125V7.875C42.625 6.48261 43.1781 5.14726 44.1627 4.16269C45.1473 3.17812 46.4826 2.625 47.875 2.625H56.125C57.5174 2.625 58.8527 3.17812 59.8373 4.16269C60.8219 5.14726 61.375 6.48261 61.375 7.875ZM56.5 12C56.5 11.11 56.2361 10.24 55.7416 9.49993C55.2471 8.75991 54.5443 8.18314 53.7221 7.84254C52.8998 7.50195 51.995 7.41283 51.1221 7.58647C50.2492 7.7601 49.4474 8.18868 48.818 8.81802C48.1887 9.44736 47.7601 10.2492 47.5865 11.1221C47.4128 11.995 47.5019 12.8998 47.8425 13.7221C48.1831 14.5443 48.7599 15.2471 49.4999 15.7416C50.24 16.2361 51.11 16.5 52 16.5C53.1935 16.5 54.3381 16.0259 55.182 15.182C56.0259 14.3381 56.5 13.1935 56.5 12ZM58 7.125C58 6.9025 57.934 6.68499 57.8104 6.49998C57.6868 6.31498 57.5111 6.17078 57.3055 6.08564C57.1 6.00049 56.8738 5.97821 56.6555 6.02162C56.4373 6.06502 56.2368 6.17217 56.0795 6.3295C55.9222 6.48684 55.815 6.68729 55.7716 6.90552C55.7282 7.12375 55.7505 7.34995 55.8356 7.55552C55.9208 7.76109 56.065 7.93679 56.25 8.0604C56.435 8.18402 56.6525 8.25 56.875 8.25C57.1734 8.25 57.4595 8.13147 57.6705 7.9205C57.8815 7.70952 58 7.42337 58 7.125Z" fill="#1E1E1E"/>
<path d="M92 2.05444C86.5072 2.05444 82.0545 6.50713 82.0545 12C82.0545 17.4928 86.5072 21.9455 92 21.9455C97.4928 21.9455 101.945 17.4928 101.945 12C101.945 6.50713 97.4928 2.05444 92 2.05444ZM89.5654 16.1222H87.5514V9.641H89.5654V16.1222ZM88.546 8.84536C87.9099 8.84536 87.4986 8.3947 87.4986 7.83734C87.4986 7.26858 87.9223 6.83139 88.5719 6.83139C89.2215 6.83139 89.6193 7.26858 89.6317 7.83734C89.6317 8.3947 89.2215 8.84536 88.546 8.84536ZM96.9209 16.1222H94.907V12.5304C94.907 11.6943 94.6148 11.1266 93.8865 11.1266C93.3302 11.1266 92.9997 11.511 92.8536 11.8808C92.7998 12.0124 92.7863 12.1989 92.7863 12.3843V16.1211H90.7713V11.7078C90.7713 10.8987 90.7454 10.2222 90.7185 9.63996H92.4682L92.5605 10.5402H92.6009C92.8661 10.1176 93.5156 9.49389 94.6024 9.49389C95.9274 9.49389 96.9209 10.3817 96.9209 12.29V16.1222Z" fill="#1E1E1E"/>
</svg>
