<svg width="551" height="54" viewBox="0 0 551 54" fill="none" xmlns="http://www.w3.org/2000/svg">
<path d="M0.311079 2.72727H9.01705L20.6761 31.1847H21.1364L32.7955 2.72727H41.5014V42H34.6747V15.0192H34.3104L23.4567 41.8849H18.3558L7.50213 14.9616H7.13778V42H0.311079V2.72727ZM60.9815 42.5753C58.0284 42.5753 55.478 41.9616 53.3303 40.7344C51.1953 39.4943 49.5526 37.7429 48.402 35.4801C47.2514 33.2045 46.6761 30.5263 46.6761 27.4453C46.6761 24.4155 47.2514 21.7564 48.402 19.468C49.5653 17.1669 51.1889 15.3771 53.2727 14.0987C55.3565 12.8075 57.8047 12.1619 60.6172 12.1619C62.4325 12.1619 64.1456 12.456 65.7564 13.044C67.38 13.6193 68.8118 14.5142 70.0518 15.7287C71.3047 16.9432 72.2891 18.4901 73.005 20.3693C73.7209 22.2358 74.0788 24.4602 74.0788 27.0426V29.1712H49.9361V24.4922H67.4247C67.4119 23.1626 67.1243 21.9801 66.5618 20.9446C65.9993 19.8963 65.2131 19.0717 64.2031 18.4709C63.206 17.87 62.0426 17.5696 60.7131 17.5696C59.294 17.5696 58.0476 17.9148 56.9737 18.6051C55.8999 19.2827 55.0625 20.1776 54.4616 21.2898C53.8736 22.3892 53.5732 23.5973 53.5604 24.9141V28.9986C53.5604 30.7116 53.8736 32.1818 54.5 33.4091C55.1264 34.6236 56.0021 35.5568 57.1271 36.2088C58.2521 36.848 59.5689 37.1676 61.0774 37.1676C62.0874 37.1676 63.0014 37.027 63.8196 36.7457C64.6378 36.4517 65.3473 36.0234 65.9482 35.4609C66.549 34.8984 67.0028 34.2017 67.3097 33.3707L73.7912 34.0994C73.3821 35.8125 72.6023 37.3082 71.4517 38.5866C70.3139 39.8523 68.8565 40.8366 67.0795 41.5398C65.3026 42.2301 63.2699 42.5753 60.9815 42.5753ZM91.9913 42.5753C89.0382 42.5753 86.4877 41.9616 84.34 40.7344C82.2051 39.4943 80.5623 37.7429 79.4118 35.4801C78.2612 33.2045 77.6859 30.5263 77.6859 27.4453C77.6859 24.4155 78.2612 21.7564 79.4118 19.468C80.5751 17.1669 82.1987 15.3771 84.2825 14.0987C86.3663 12.8075 88.8145 12.1619 91.627 12.1619C93.4423 12.1619 95.1554 12.456 96.7662 13.044C98.3897 13.6193 99.8216 14.5142 101.062 15.7287C102.314 16.9432 103.299 18.4901 104.015 20.3693C104.731 22.2358 105.089 24.4602 105.089 27.0426V29.1712H80.9458V24.4922H98.4345C98.4217 23.1626 98.1341 21.9801 97.5716 20.9446C97.0091 19.8963 96.2228 19.0717 95.2129 18.4709C94.2157 17.87 93.0524 17.5696 91.7228 17.5696C90.3038 17.5696 89.0574 17.9148 87.9835 18.6051C86.9096 19.2827 86.0723 20.1776 85.4714 21.2898C84.8833 22.3892 84.5829 23.5973 84.5701 24.9141V28.9986C84.5701 30.7116 84.8833 32.1818 85.5098 33.4091C86.1362 34.6236 87.0119 35.5568 88.1369 36.2088C89.2619 36.848 90.5787 37.1676 92.0872 37.1676C93.0971 37.1676 94.0112 37.027 94.8294 36.7457C95.6476 36.4517 96.3571 36.0234 96.9579 35.4609C97.5588 34.8984 98.0126 34.2017 98.3194 33.3707L104.801 34.0994C104.392 35.8125 103.612 37.3082 102.461 38.5866C101.324 39.8523 99.8663 40.8366 98.0893 41.5398C96.3123 42.2301 94.2797 42.5753 91.9913 42.5753ZM124.669 12.5455V17.9148H107.737V12.5455H124.669ZM111.917 5.48864H118.859V33.1406C118.859 34.0739 119 34.7898 119.281 35.2884C119.575 35.7741 119.958 36.1065 120.431 36.2855C120.904 36.4645 121.429 36.554 122.004 36.554C122.439 36.554 122.835 36.522 123.193 36.4581C123.564 36.3942 123.845 36.3366 124.037 36.2855L125.206 41.7124C124.836 41.8402 124.305 41.9808 123.615 42.1342C122.937 42.2876 122.106 42.3771 121.122 42.4027C119.383 42.4538 117.817 42.1918 116.424 41.6165C115.03 41.0284 113.924 40.1207 113.106 38.8935C112.301 37.6662 111.904 36.1321 111.917 34.2912V5.48864ZM156.578 12.5455V17.9148H139.645V12.5455H156.578ZM143.825 5.48864H150.767V33.1406C150.767 34.0739 150.908 34.7898 151.189 35.2884C151.483 35.7741 151.867 36.1065 152.34 36.2855C152.813 36.4645 153.337 36.554 153.912 36.554C154.347 36.554 154.743 36.522 155.101 36.4581C155.472 36.3942 155.753 36.3366 155.945 36.2855L157.115 41.7124C156.744 41.8402 156.213 41.9808 155.523 42.1342C154.845 42.2876 154.014 42.3771 153.03 42.4027C151.291 42.4538 149.725 42.1918 148.332 41.6165C146.938 41.0284 145.833 40.1207 145.014 38.8935C144.209 37.6662 143.813 36.1321 143.825 34.2912V5.48864ZM168.958 24.7415V42H162.016V2.72727H168.804V17.5504H169.15C169.84 15.8885 170.907 14.5781 172.352 13.6193C173.809 12.6477 175.663 12.1619 177.913 12.1619C179.958 12.1619 181.742 12.5902 183.263 13.4467C184.784 14.3033 185.961 15.5561 186.792 17.2053C187.635 18.8544 188.057 20.8679 188.057 23.2457V42H181.115V24.3196C181.115 22.3381 180.604 20.7976 179.581 19.6982C178.571 18.5859 177.152 18.0298 175.324 18.0298C174.097 18.0298 172.998 18.2983 172.026 18.8352C171.067 19.3594 170.313 20.12 169.763 21.1172C169.226 22.1143 168.958 23.3224 168.958 24.7415ZM207.173 42.5753C204.22 42.5753 201.669 41.9616 199.522 40.7344C197.387 39.4943 195.744 37.7429 194.593 35.4801C193.443 33.2045 192.868 30.5263 192.868 27.4453C192.868 24.4155 193.443 21.7564 194.593 19.468C195.757 17.1669 197.38 15.3771 199.464 14.0987C201.548 12.8075 203.996 12.1619 206.809 12.1619C208.624 12.1619 210.337 12.456 211.948 13.044C213.571 13.6193 215.003 14.5142 216.243 15.7287C217.496 16.9432 218.48 18.4901 219.196 20.3693C219.912 22.2358 220.27 24.4602 220.27 27.0426V29.1712H196.127V24.4922H213.616C213.603 23.1626 213.316 21.9801 212.753 20.9446C212.191 19.8963 211.404 19.0717 210.395 18.4709C209.397 17.87 208.234 17.5696 206.904 17.5696C205.485 17.5696 204.239 17.9148 203.165 18.6051C202.091 19.2827 201.254 20.1776 200.653 21.2898C200.065 22.3892 199.765 23.5973 199.752 24.9141V28.9986C199.752 30.7116 200.065 32.1818 200.691 33.4091C201.318 34.6236 202.194 35.5568 203.319 36.2088C204.444 36.848 205.76 37.1676 207.269 37.1676C208.279 37.1676 209.193 37.027 210.011 36.7457C210.829 36.4517 211.539 36.0234 212.14 35.4609C212.74 34.8984 213.194 34.2017 213.501 33.3707L219.983 34.0994C219.574 35.8125 218.794 37.3082 217.643 38.5866C216.505 39.8523 215.048 40.8366 213.271 41.5398C211.494 42.2301 209.461 42.5753 207.173 42.5753ZM271.46 15.978H264.288C264.084 14.8018 263.707 13.7599 263.157 12.8523C262.607 11.9318 261.923 11.152 261.105 10.5128C260.287 9.87358 259.354 9.39417 258.305 9.07457C257.27 8.74219 256.151 8.57599 254.949 8.57599C252.814 8.57599 250.922 9.11293 249.273 10.1868C247.624 11.2479 246.333 12.8075 245.4 14.8658C244.466 16.9112 244 19.4105 244 22.3636C244 25.3679 244.466 27.8991 245.4 29.9574C246.346 32.0028 247.637 33.5497 249.273 34.598C250.922 35.6335 252.808 36.1513 254.93 36.1513C256.106 36.1513 257.206 35.9979 258.229 35.6911C259.264 35.3714 260.191 34.9048 261.009 34.2912C261.84 33.6776 262.537 32.9233 263.099 32.0284C263.675 31.1335 264.071 30.1108 264.288 28.9602L271.46 28.9986C271.192 30.8651 270.61 32.6165 269.715 34.2528C268.833 35.8892 267.676 37.3338 266.244 38.5866C264.812 39.8267 263.138 40.7983 261.22 41.5014C259.302 42.1918 257.174 42.5369 254.834 42.5369C251.383 42.5369 248.302 41.7379 245.591 40.1399C242.881 38.5419 240.746 36.2344 239.187 33.2173C237.627 30.2003 236.847 26.5824 236.847 22.3636C236.847 18.1321 237.633 14.5142 239.206 11.5099C240.778 8.4929 242.92 6.18537 245.63 4.58736C248.34 2.98934 251.408 2.19034 254.834 2.19034C257.02 2.19034 259.053 2.49716 260.932 3.11079C262.812 3.72443 264.486 4.62571 265.956 5.81463C267.427 6.99077 268.635 8.43537 269.581 10.1484C270.54 11.8487 271.166 13.7919 271.46 15.978ZM283.61 2.72727V42H276.668V2.72727H283.61ZM302.596 42.5753C299.72 42.5753 297.227 41.9425 295.118 40.6768C293.008 39.4112 291.372 37.6406 290.209 35.3651C289.058 33.0895 288.483 30.4304 288.483 27.3878C288.483 24.3452 289.058 21.6797 290.209 19.3913C291.372 17.103 293.008 15.326 295.118 14.0604C297.227 12.7947 299.72 12.1619 302.596 12.1619C305.473 12.1619 307.966 12.7947 310.075 14.0604C312.184 15.326 313.814 17.103 314.965 19.3913C316.128 21.6797 316.71 24.3452 316.71 27.3878C316.71 30.4304 316.128 33.0895 314.965 35.3651C313.814 37.6406 312.184 39.4112 310.075 40.6768C307.966 41.9425 305.473 42.5753 302.596 42.5753ZM302.635 37.0142C304.194 37.0142 305.498 36.5859 306.547 35.7294C307.595 34.8601 308.375 33.6967 308.886 32.2393C309.41 30.782 309.672 29.1584 309.672 27.3686C309.672 25.5661 309.41 23.9361 308.886 22.4787C308.375 21.0085 307.595 19.8388 306.547 18.9695C305.498 18.1001 304.194 17.6655 302.635 17.6655C301.037 17.6655 299.707 18.1001 298.646 18.9695C297.598 19.8388 296.812 21.0085 296.287 22.4787C295.776 23.9361 295.52 25.5661 295.52 27.3686C295.52 29.1584 295.776 30.782 296.287 32.2393C296.812 33.6967 297.598 34.8601 298.646 35.7294C299.707 36.5859 301.037 37.0142 302.635 37.0142ZM328.544 24.7415V42H321.602V12.5455H328.237V17.5504H328.582C329.26 15.9013 330.34 14.5909 331.823 13.6193C333.319 12.6477 335.166 12.1619 337.365 12.1619C339.397 12.1619 341.168 12.5966 342.676 13.4659C344.198 14.3352 345.374 15.5945 346.205 17.2436C347.049 18.8928 347.464 20.8935 347.451 23.2457V42H340.51V24.3196C340.51 22.3509 339.998 20.8104 338.975 19.6982C337.966 18.5859 336.566 18.0298 334.776 18.0298C333.561 18.0298 332.481 18.2983 331.535 18.8352C330.602 19.3594 329.867 20.12 329.33 21.1172C328.806 22.1143 328.544 23.3224 328.544 24.7415ZM353.508 42V12.5455H360.45V42H353.508ZM356.998 8.36506C355.899 8.36506 354.953 8.00071 354.16 7.27202C353.368 6.53054 352.971 5.64204 352.971 4.60653C352.971 3.55824 353.368 2.66974 354.16 1.94105C354.953 1.19957 355.899 0.828834 356.998 0.828834C358.11 0.828834 359.056 1.19957 359.836 1.94105C360.629 2.66974 361.025 3.55824 361.025 4.60653C361.025 5.64204 360.629 6.53054 359.836 7.27202C359.056 8.00071 358.11 8.36506 356.998 8.36506ZM381.507 12.5455V17.9148H364.095V12.5455H381.507ZM368.448 42V9.76491C368.448 7.78338 368.857 6.13423 369.676 4.81747C370.507 3.50071 371.619 2.51633 373.012 1.86434C374.406 1.21236 375.953 0.886361 377.653 0.886361C378.855 0.886361 379.922 0.982242 380.855 1.17401C381.789 1.36577 382.479 1.53835 382.926 1.69176L381.546 7.06108C381.252 6.97159 380.881 6.8821 380.433 6.79261C379.986 6.69034 379.487 6.6392 378.938 6.6392C377.646 6.6392 376.732 6.95241 376.195 7.57883C375.671 8.19247 375.409 9.07457 375.409 10.2251V42H368.448ZM390.258 53.0455C389.312 53.0455 388.437 52.9688 387.631 52.8153C386.839 52.6747 386.206 52.5085 385.733 52.3168L387.344 46.9091C388.354 47.2031 389.255 47.3438 390.047 47.331C390.84 47.3182 391.537 47.0689 392.138 46.5831C392.751 46.1101 393.269 45.3175 393.691 44.2053L394.285 42.6136L383.604 12.5455H390.968L397.756 34.7898H398.063L404.871 12.5455H412.253L400.46 45.5668C399.91 47.1264 399.182 48.4624 398.274 49.5746C397.366 50.6996 396.254 51.5561 394.937 52.1442C393.633 52.745 392.074 53.0455 390.258 53.0455ZM443.16 12.5455V17.9148H426.227V12.5455H443.16ZM430.407 5.48864H437.349V33.1406C437.349 34.0739 437.49 34.7898 437.771 35.2884C438.065 35.7741 438.449 36.1065 438.922 36.2855C439.395 36.4645 439.919 36.554 440.494 36.554C440.929 36.554 441.325 36.522 441.683 36.4581C442.054 36.3942 442.335 36.3366 442.527 36.2855L443.697 41.7124C443.326 41.8402 442.795 41.9808 442.105 42.1342C441.427 42.2876 440.596 42.3771 439.612 42.4027C437.873 42.4538 436.307 42.1918 434.914 41.6165C433.52 41.0284 432.415 40.1207 431.596 38.8935C430.791 37.6662 430.395 36.1321 430.407 34.2912V5.48864ZM460.689 42.5753C457.735 42.5753 455.185 41.9616 453.037 40.7344C450.902 39.4943 449.26 37.7429 448.109 35.4801C446.958 33.2045 446.383 30.5263 446.383 27.4453C446.383 24.4155 446.958 21.7564 448.109 19.468C449.272 17.1669 450.896 15.3771 452.98 14.0987C455.064 12.8075 457.512 12.1619 460.324 12.1619C462.14 12.1619 463.853 12.456 465.463 13.044C467.087 13.6193 468.519 14.5142 469.759 15.7287C471.012 16.9432 471.996 18.4901 472.712 20.3693C473.428 22.2358 473.786 24.4602 473.786 27.0426V29.1712H449.643V24.4922H467.132C467.119 23.1626 466.831 21.9801 466.269 20.9446C465.706 19.8963 464.92 19.0717 463.91 18.4709C462.913 17.87 461.75 17.5696 460.42 17.5696C459.001 17.5696 457.755 17.9148 456.681 18.6051C455.607 19.2827 454.77 20.1776 454.169 21.2898C453.581 22.3892 453.28 23.5973 453.267 24.9141V28.9986C453.267 30.7116 453.581 32.1818 454.207 33.4091C454.833 34.6236 455.709 35.5568 456.834 36.2088C457.959 36.848 459.276 37.1676 460.784 37.1676C461.794 37.1676 462.708 37.027 463.527 36.7457C464.345 36.4517 465.054 36.0234 465.655 35.4609C466.256 34.8984 466.71 34.2017 467.017 33.3707L473.498 34.0994C473.089 35.8125 472.309 37.3082 471.159 38.5866C470.021 39.8523 468.564 40.8366 466.787 41.5398C465.01 42.2301 462.977 42.5753 460.689 42.5753ZM487.134 42.5945C485.268 42.5945 483.587 42.2621 482.091 41.5973C480.608 40.9197 479.432 39.9226 478.563 38.6058C477.706 37.2891 477.278 35.6655 477.278 33.7351C477.278 32.0732 477.585 30.6989 478.198 29.6122C478.812 28.5256 479.649 27.6562 480.71 27.0043C481.771 26.3523 482.967 25.8601 484.296 25.5277C485.639 25.1825 487.026 24.9332 488.458 24.7798C490.183 24.6009 491.583 24.4411 492.657 24.3004C493.731 24.147 494.511 23.9169 494.997 23.6101C495.495 23.2905 495.744 22.7983 495.744 22.1335V22.0185C495.744 20.5739 495.316 19.4553 494.46 18.6626C493.603 17.87 492.369 17.4737 490.759 17.4737C489.058 17.4737 487.71 17.8445 486.713 18.5859C485.728 19.3274 485.063 20.2031 484.718 21.2131L478.237 20.2926C478.748 18.5028 479.592 17.0071 480.768 15.8054C481.944 14.5909 483.382 13.6832 485.083 13.0824C486.783 12.4688 488.662 12.1619 490.72 12.1619C492.139 12.1619 493.552 12.3281 494.958 12.6605C496.365 12.9929 497.649 13.5426 498.813 14.3097C499.976 15.0639 500.909 16.093 501.612 17.397C502.328 18.701 502.686 20.331 502.686 22.2869V42H496.013V37.9538H495.783C495.361 38.772 494.767 39.5391 493.999 40.255C493.245 40.9581 492.293 41.527 491.142 41.9616C490.004 42.3835 488.669 42.5945 487.134 42.5945ZM488.937 37.4936C490.33 37.4936 491.539 37.2187 492.561 36.669C493.584 36.1065 494.37 35.3651 494.92 34.4446C495.482 33.5241 495.764 32.5206 495.764 31.4339V27.9631C495.546 28.142 495.176 28.3082 494.651 28.4616C494.14 28.6151 493.565 28.7493 492.926 28.8643C492.286 28.9794 491.654 29.0817 491.027 29.1712C490.401 29.2607 489.857 29.3374 489.397 29.4013C488.362 29.5419 487.435 29.772 486.617 30.0916C485.798 30.4112 485.153 30.8587 484.68 31.4339C484.207 31.9964 483.97 32.7251 483.97 33.62C483.97 34.8984 484.437 35.8636 485.37 36.5156C486.303 37.1676 487.492 37.4936 488.937 37.4936ZM508.666 42V12.5455H515.301V17.5504H515.646C516.26 15.8629 517.276 14.5462 518.695 13.6001C520.115 12.6413 521.808 12.1619 523.777 12.1619C525.771 12.1619 527.453 12.6477 528.82 13.6193C530.201 14.5781 531.173 15.8885 531.735 17.5504H532.042C532.694 15.9141 533.794 14.6101 535.34 13.6385C536.9 12.6541 538.747 12.1619 540.882 12.1619C543.593 12.1619 545.804 13.0185 547.517 14.7315C549.23 16.4446 550.087 18.9439 550.087 22.2294V42H543.126V23.3033C543.126 21.4751 542.64 20.1392 541.669 19.2955C540.697 18.4389 539.508 18.0107 538.102 18.0107C536.427 18.0107 535.117 18.5348 534.171 19.5831C533.237 20.6186 532.771 21.9673 532.771 23.6293V42H525.963V23.0156C525.963 21.4943 525.503 20.2798 524.583 19.3722C523.675 18.4645 522.486 18.0107 521.016 18.0107C520.019 18.0107 519.111 18.2663 518.293 18.7777C517.475 19.2763 516.823 19.9858 516.337 20.9062C515.851 21.8139 515.608 22.875 515.608 24.0895V42H508.666Z" fill="#282828"/>
</svg>
