<svg width="84" height="13" viewBox="0 0 84 13" fill="none" xmlns="http://www.w3.org/2000/svg">
<path d="M11.1158 6.18182C11.1158 7.43561 10.8809 8.50947 10.4112 9.40341C9.94531 10.2936 9.30895 10.9754 8.50213 11.4489C7.6991 11.9223 6.78812 12.1591 5.76918 12.1591C4.75024 12.1591 3.83736 11.9223 3.03054 11.4489C2.22751 10.9716 1.59115 10.2879 1.12145 9.39773C0.65554 8.50379 0.422585 7.43182 0.422585 6.18182C0.422585 4.92803 0.65554 3.85606 1.12145 2.96591C1.59115 2.07197 2.22751 1.38826 3.03054 0.914772C3.83736 0.441287 4.75024 0.204545 5.76918 0.204545C6.78812 0.204545 7.6991 0.441287 8.50213 0.914772C9.30895 1.38826 9.94531 2.07197 10.4112 2.96591C10.8809 3.85606 11.1158 4.92803 11.1158 6.18182ZM8.99645 6.18182C8.99645 5.29924 8.85819 4.55492 8.58168 3.94886C8.30895 3.33902 7.93016 2.87879 7.44531 2.56818C6.96046 2.25379 6.40175 2.09659 5.76918 2.09659C5.1366 2.09659 4.57789 2.25379 4.09304 2.56818C3.60819 2.87879 3.22751 3.33902 2.95099 3.94886C2.67827 4.55492 2.5419 5.29924 2.5419 6.18182C2.5419 7.06439 2.67827 7.81061 2.95099 8.42045C3.22751 9.02652 3.60819 9.48674 4.09304 9.80114C4.57789 10.1117 5.1366 10.267 5.76918 10.267C6.40175 10.267 6.96046 10.1117 7.44531 9.80114C7.93016 9.48674 8.30895 9.02652 8.58168 8.42045C8.85819 7.81061 8.99645 7.06439 8.99645 6.18182ZM20.4439 0.363636H22.5518V7.96591C22.5518 8.79924 22.3549 9.5322 21.9609 10.1648C21.5708 10.7973 21.0215 11.2917 20.3132 11.6477C19.6049 12 18.7772 12.1761 17.8303 12.1761C16.8795 12.1761 16.05 12 15.3416 11.6477C14.6333 11.2917 14.084 10.7973 13.6939 10.1648C13.3037 9.5322 13.1087 8.79924 13.1087 7.96591V0.363636H15.2166V7.78977C15.2166 8.27462 15.3227 8.70644 15.5348 9.08523C15.7507 9.46402 16.0537 9.76136 16.4439 9.97727C16.834 10.1894 17.2962 10.2955 17.8303 10.2955C18.3643 10.2955 18.8265 10.1894 19.2166 9.97727C19.6106 9.76136 19.9136 9.46402 20.1257 9.08523C20.3378 8.70644 20.4439 8.27462 20.4439 7.78977V0.363636ZM24.843 12V0.363636H29.2067C30.1006 0.363636 30.8506 0.518939 31.4567 0.829545C32.0665 1.14015 32.5268 1.57576 32.8374 2.13636C33.1518 2.69318 33.3089 3.3428 33.3089 4.08523C33.3089 4.83144 33.1499 5.47917 32.8317 6.02841C32.5173 6.57386 32.0533 6.99621 31.4396 7.29545C30.826 7.59091 30.0722 7.73864 29.1783 7.73864H26.0703V5.98864H28.8942C29.4169 5.98864 29.8449 5.91667 30.1783 5.77273C30.5116 5.625 30.7578 5.41098 30.9169 5.13068C31.0798 4.84659 31.1612 4.49811 31.1612 4.08523C31.1612 3.67235 31.0798 3.32008 30.9169 3.02841C30.754 2.73295 30.5059 2.50947 30.1726 2.35795C29.8393 2.20265 29.4093 2.125 28.8828 2.125H26.951V12H24.843ZM30.8544 6.72727L33.7351 12H31.3828L28.5533 6.72727H30.8544ZM38.7067 2.13068V0.363636H47.9908V2.13068H44.3942V12H42.3033V2.13068H38.7067ZM49.7805 12V0.363636H57.3487V2.13068H51.8885V5.28977H56.9567V7.05682H51.8885V10.233H57.3942V12H49.7805ZM60.9936 12H58.7436L62.8402 0.363636H65.4425L69.5447 12H67.2947L64.1868 2.75H64.0959L60.9936 12ZM61.0675 7.4375H67.2038V9.13068H61.0675V7.4375ZM71.0774 0.363636H73.657L77.1115 8.79545H77.2479L80.7024 0.363636H83.282V12H81.2592V4.00568H81.1513L77.9354 11.9659H76.424L73.2081 3.98864H73.1001V12H71.0774V0.363636Z" fill="#282828"/>
</svg>
